<svg width="24" height="24" viewBox="0 0 24 24" fill="none" xmlns="http://www.w3.org/2000/svg">
<g id="iconmonstr-share-11 1">
<path class="arrow" d="M13.7183 4H20.75C20.8881 4 21 4.11193 21 4.25V11.3054C21 11.5289 20.729 11.6401 20.572 11.481L18.2169 9.09353C18.1189 8.99422 17.9587 8.9943 17.8608 9.0937L13.2071 13.8203C13.1096 13.9193 12.9501 13.9198 12.852 13.8214L11.175 12.1406C11.0781 12.0435 11.0776 11.8864 11.1738 11.7886L15.834 7.05545C15.9306 6.95738 15.9297 6.79971 15.8321 6.70271L13.5421 4.42734C13.3838 4.27008 13.4952 4 13.7183 4Z" fill="white"/>
<path class="box" d="M21 22.5V13.5C21 13.2239 20.7761 13 20.5 13H19.5C19.2239 13 19 13.2239 19 13.5V20.5C19 20.7761 18.7761 21 18.5 21H2.5C2.22386 21 2 20.7761 2 20.5V6.5C2 6.22386 2.22386 6 2.5 6H11.5C11.7761 6 12 5.77614 12 5.5V4.5C12 4.22386 11.7761 4 11.5 4H0.5C0.223858 4 0 4.22386 0 4.5V22.5C0 22.7761 0.223858 23 0.500001 23H20.5C20.7761 23 21 22.7761 21 22.5Z" fill="white"/>
</g>
</svg>
